HIERARCHY
ROOT ui
{
	 OFFSET 0 0 0
	 CHANNELS 3 XPosition YPosition Z Position
	 EndSite
	 {
	 OFFSET 0 -1 0
	 }
}
ROOT li
{
	 OFFSET 0 0 0
	 CHANNELS 3 XPosition YPosition Z Position
	 EndSite
	 {
	 OFFSET 0 -1 0
	 }
}
ROOT ul
{
	 OFFSET 0 0 0
	 CHANNELS 3 XPosition YPosition Z Position
	 EndSite
	 {
	 OFFSET 0 -1 0
	 }
}
ROOT ll
{
	 OFFSET 0 0 0
	 CHANNELS 3 XPosition YPosition Z Position
	 EndSite
	 {
	 OFFSET 0 -1 0
	 }
}
ROOT tt
{
	 OFFSET 0 0 0
	 CHANNELS 3 XPosition YPosition Z Position
	 EndSite
	 {
	 OFFSET 0 -1 0
	 }
}
ROOT tb
{
	 OFFSET 0 0 0
	 CHANNELS 3 XPosition YPosition Z Position
	 EndSite
	 {
	 OFFSET 0 -1 0
	 }
}
ROOT td
{
	 OFFSET 0 0 0
	 CHANNELS 3 XPosition YPosition Z Position
	 EndSite
	 {
	 OFFSET 0 -1 0
	 }
}
ROOT v
{
	 OFFSET 0 0 0
	 CHANNELS 3 XPosition YPosition Z Position
	 EndSite
	 {
	 OFFSET 0 -1 0
	 }
}
ROOT bn
{
	 OFFSET 0 0 0
	 CHANNELS 3 XPosition YPosition Z Position
	 EndSite
	 {
	 OFFSET 0 -1 0
	 }
}
MOTION
Frames: 29
Frame Time: 0.002
-7.167620062828064E-4	1.9778500497341157E-4	0		0.5171051025390625	-2.37374853515625	0		-0.952544189453125	0.023100130081176756	0		-0.6905608520507812	-2.2254482421875	0		1.7502694091796875	-0.4371962890625	0		3.43818896484375	-0.02596347427368164	0		4.8234921875	-0.10692215728759766	0		5.56055517578125	0.11019444274902344	0		-0.2679195556640625	5.860953125	0		
0.012735990524291993	-0.012404838562011718	0		0.49719949340820313	-2.379130126953125	0		-0.9499248046875	0.027772613525390625	0		-0.7663419189453125	-2.220079345703125	0		1.704741455078125	-0.4395516357421875	0		3.42076220703125	-0.025889144897460938	0		4.80904150390625	-0.10812529754638672	0		5.55915234375	0.10973489379882813	0		-0.26828909301757814	5.86154052734375	0		
0.0113184757232666	-0.011866915702819824	0		0.495347412109375	-2.378680908203125	0		-0.9413547973632812	0.026390228271484375	0		-0.7681647338867188	-2.2193984375	0		1.709322998046875	-0.43138302612304685	0		3.458233642578125	-0.03735532379150391	0		4.8076064453125	-0.10846800231933594	0		5.571814453125	0.11511817169189453	0		-0.2656671447753906	5.85810107421875	0		
0.0200264892578125	-0.0014336689710617064	0		0.4705919189453125	-2.371010009765625	0		-1.0136852416992188	0.03280081558227539	0		-0.7628923950195312	-2.211791748046875	0		1.7118946533203125	-0.4272024841308594	0		3.441056884765625	-0.0152994384765625	0		4.8212568359375	-0.1029664535522461	0		5.570447265625	0.11462789916992187	0		-0.13274661254882814	5.88136669921875	0		
0.018680940628051756	-9.120399951934815E-4	0		0.52479443359375	-2.37313427734375	0		-0.9449878540039063	0.03680374526977539	0		-0.7666580810546875	-2.213108154296875	0		1.7104720458984375	-0.42698709106445315	0		3.422528076171875	-0.03322476577758789	0		4.82276123046875	-0.11634346771240234	0		5.5591435546875	0.11624555969238282	0		-0.13500706481933594	5.88393603515625	0		
0.014359785079956054	-0.0033716249465942385	0		0.4561733703613281	-2.36402685546875	0		-0.9513125	0.03353375244140625	0		-0.7713569946289063	-2.214429931640625	0		1.746053466796875	-0.4321535339355469	0		3.425293212890625	-0.027353662490844727	0		4.80960498046875	-0.10155435180664063	0		5.55379150390625	0.10782466125488281	0		-0.14938771057128905	5.87261669921875	0		
0.004142381191253662	-0.0017823380231857299	0		0.5064725036621094	-2.371147216796875	0		-0.956565673828125	0.031233436584472658	0		-0.7849041748046875	-2.208677490234375	0		1.6976826171875	-0.438458740234375	0		3.4399140625	-0.041597412109375	0		4.80920361328125	-0.11687435150146484	0		5.562560546875	0.10528507232666015	0		-0.26873666381835937	5.863380859375	0		
0.0048967661857604984	-0.009322283744812011	0		0.459893798828125	-2.37427001953125	0		-0.9577212524414063	0.031867490768432614	0		-0.7765023193359375	-2.21617626953125	0		1.6994942626953125	-0.4342801513671875	0		3.42298046875	-0.01949672508239746	0		4.812087890625	-0.11120290374755859	0		5.56141650390625	0.10487899017333985	0		-0.26797235107421874	5.86289453125	0		
0.005922540187835694	0.002119065046310425	0		0.51442236328125	-2.3764755859375	0		-0.94378662109375	0.034314163208007814	0		-0.7728720092773438	-2.210649658203125	0		1.705423828125	-0.4261463623046875	0		3.42671484375	-0.0355985221862793	0		4.8060771484375	-0.10240708923339843	0		5.56034130859375	0.1045093002319336	0		-0.1339556427001953	5.883958984375	0		
-0.004998382091522217	0.011673347473144531	0		0.4881274719238281	-2.370828857421875	0		-0.9507467651367187	0.03995748519897461	0		-0.7402559814453125	-2.21546435546875	0		1.700301513671875	-0.429893310546875	0		3.44990625	-0.01589106559753418	0		4.80994482421875	-0.11168348693847656	0		5.5493583984375	0.1062902603149414	0		-0.13415565490722656	5.8844248046875	0		
0.00891124725341797	-0.0010609010457992554	0		0.5097973022460938	-2.377714599609375	0		-0.9516895751953125	0.04050864791870117	0		-0.7784525756835937	-2.211533203125	0		1.6992984619140625	-0.4296818542480469	0		3.40983740234375	-0.026474132537841796	0		4.80408203125	-0.10281605529785157	0		5.55251220703125	0.11396399688720703	0		-0.1353385009765625	5.88588232421875	0		
-0.00399762511253357	-0.0035178780555725096	0		0.49973196411132814	-2.369264404296875	0		-0.9656824340820312	0.030175880432128908	0		-0.7175917358398437	-2.211720947265625	0		1.733269775390625	-0.43885910034179687	0		3.408958251953125	-0.02646334457397461	0		4.80809326171875	-0.1120237274169922	0		5.55835986328125	0.08764741516113281	0		-0.268772216796875	5.86478857421875	0		
1.522130072116852E-4	-0.007183317184448242	0		0.4806077575683594	-2.374725341796875	0		-0.9474176635742187	0.03645552444458008	0		-0.7806289672851563	-2.21055810546875	0		1.697521484375	-0.42926220703125	0		3.43202587890625	-0.03770663833618164	0		4.805265625	-0.11312545776367187	0		5.565732421875	0.10235218811035156	0		-0.26798324584960936	5.8621962890625	0		
0.009530562400817871	0.0030713601112365724	0		0.45874661254882815	-2.365166259765625	0		-0.9481476440429687	0.03691618347167969	0		-0.7666123657226562	-2.213283447265625	0		1.700791259765625	-0.4251042175292969	0		3.430537841796875	-0.015661842346191408	0		4.810611328125	-0.10529251861572266	0		5.56011083984375	0.11123566436767578	0		-0.2681355285644531	5.8635908203125	0		
0.008867189407348633	0.0034173049926757813	0		0.51182666015625	-2.3694755859375	0		-0.9488080444335938	0.03734600067138672	0		-0.7773892822265625	-2.205755859375	0		1.70009033203125	-0.42490640258789064	0		3.39666943359375	-0.033237831115722656	0		4.8009619140625	-0.1032645034790039	0		5.5553662109375	0.10314163970947265	0		-0.1350204620361328	5.88644189453125	0		
0.0052367978096008305	7.759559750556945E-4	0		0.5049657897949219	-2.376121337890625	0		-0.9644235229492187	0.03591698837280274	0		-0.7482627563476563	-2.214714599609375	0		1.692369384765625	-0.4326331176757813	0		3.427068359375	-0.03353369140625	0		4.8121845703125	-0.11845044708251953	0		5.54969775390625	0.09609172058105468	0		-0.13515858459472657	5.88677685546875	0		
-0.0023770749568939207	-0.005841141223907471	0		0.47729473876953127	-2.373542236328125	0		-0.96900048828125	0.032331329345703125	0		-0.785922119140625	-2.21193408203125	0		1.72974609375	-0.43788571166992185	0		3.416452392578125	-0.04035009765625	0		4.80471240234375	-0.11239710235595703	0		5.54917041015625	0.09601415252685547	0		-0.13528956604003906	5.88708837890625	0		
-0.0047603178024291995	0.0024601340293884276	0		0.5036518859863282	-2.375605712890625	0		-0.9554522705078125	0.03450492477416992	0		-0.7844955444335937	-2.208632080078125	0		1.6913045654296874	-0.43226959228515627	0		3.415218017578125	-0.01926561737060547	0		4.80422998046875	-0.11240577697753906	0		5.55378125	0.10290243530273438	0		-0.2686835021972656	5.86492138671875	0		
-2.4253900349140167E-4	-0.002342988967895508	0		0.45118917846679685	-2.367771240234375	0		-1.0268109130859375	0.04063758087158203	0		-0.7850347290039063	-2.20833642578125	0		1.697951171875	-0.4241856384277344	0		3.404607421875	-0.035071826934814455	0		4.80380029296875	-0.11240238952636719	0		5.55336328125	0.10286662292480468	0		-0.2697770690917969	5.867201171875	0		
0.0034277420043945313	0.0018405940532684327	0		0.5046422424316406	-2.373193359375	0		-0.9571431884765625	0.044095115661621095	0		-0.7855120849609375	-2.20806982421875	0		1.6935089111328125	-0.42798562622070313	0		3.45439013671875	-0.021583772659301757	0		4.8034189453125	-0.11239181518554688	0		5.55299169921875	0.10284284973144531	0		-0.13564761352539062	5.88687353515625	0		
-0.008939840316772462	-8.115710020065308E-4	0		0.47723907470703125	-2.370689697265625	0		-0.960615478515625	0.03237636947631836	0		-0.7859340209960938	-2.20783154296875	0		1.73109716796875	-0.433293212890625	0		3.389001708984375	-0.025751453399658203	0		4.7981875	-0.10331986236572266	0		5.5426865234375	0.10494395446777344	0		-0.135732666015625	5.88808544921875	0		
-0.00428174877166748	-0.004687169075012207	0		0.49977645874023435	-2.37779443359375	0		-0.970896240234375	0.03371102523803711	0		-0.7883419799804687	-2.21059716796875	0		1.6867550048828126	-0.4356529541015625	0		3.403705322265625	-0.025865779876708985	0		4.80868798828125	-0.12043585205078125	0		5.54238427734375	0.10393011474609375	0		-0.26909182739257814	5.8658427734375	0		
-0.0015053689479827882	-0.0015635980367660523	0		0.4495634765625	-2.36706103515625	0		-0.9520842895507813	0.03967612838745117	0		-0.7886713256835938	-2.210412841796875	0		1.689529541015625	-0.4315834655761719	0		3.427314208984375	-0.03709834671020508	0		4.8005087890625	-0.11333628845214844	0		5.56110400390625	0.10168770599365234	0		-0.2671987609863281	5.86298681640625	0		
0.0023164050579071046	0.002525074005126953	0		0.5052294006347656	-2.370601318359375	0		-0.9523084106445312	0.039840305328369144	0		-0.7818788452148437	-2.2033369140625	0		1.6963858642578125	-0.4235801086425781	0		3.4263486328125	-0.015052048683166504	0		4.80637451171875	-0.10541214752197266	0		5.55598828125	0.11071986389160156	0		-0.2692286071777344	5.86515478515625	0		
0.005158109188079834	0.00560373592376709	0		0.4780096435546875	-2.3671796875	0		-0.9584413452148437	0.04505129623413086	0		-0.7481934204101562	-2.208604736328125	0		1.736166015625	-0.42498599243164065	0		3.398859375	-0.03970682144165039	0		4.81309423828125	-0.11250897979736328	0		5.5466201171875	0.09579354095458985	0		-0.2692533874511719	5.8662763671875	0		
-0.0020890851020812988	-0.0012191029787063598	0		0.5007037963867188	-2.374370849609375	0		-0.9676874389648438	0.038275211334228516	0		-0.7894314575195313	-2.21000537109375	0		1.688911376953125	-0.4313740539550781	0		3.4087763671875	-0.03281381225585937	0		4.79703564453125	-0.10334037780761719	0		5.5415654296875	0.10481376647949218	0		-0.15014378356933594	5.876958984375	0		
-0.002227051019668579	-0.0011465740203857422	0		0.47354409790039065	-2.371986572265625	0		-0.9718720092773437	0.0344150390625	0		-0.7156665649414062	-2.214799072265625	0		1.7267025146484376	-0.4367879943847656	0		3.428541015625	-0.041047412872314455	0		4.80178759765625	-0.11242288208007813	0		5.54632177734375	0.09571635437011719	0		-0.13603395080566405	5.8878671875	0		
-0.005376664161682129	-0.004059071063995361	0		0.4733932189941406	-2.371942626953125	0		-0.9619981079101563	0.03336230087280274	0		-0.789761962890625	-2.209853515625	0		1.691691650390625	-0.42734628295898436	0		3.421677490234375	-0.019967208862304686	0		4.8106474609375	-0.11455337524414062	0		5.5553876953125	0.11057307434082031	0		-0.13605641174316407	5.88792041015625	0		
0.001614307999610901	0.002887516021728516	0		0.4483368530273438	-2.36661865234375	0		-0.9530068969726563	0.04029538345336914	0		-0.7878424072265625	-2.20683837890625	0		1.6956424560546874	-0.42338204956054687	0		3.422322265625	-0.04198409652709961	0		4.805662109375	-0.10551588439941406	0		5.55120166015625	0.10259174346923829	0		-0.269349853515625	5.86654345703125	0		
